<svg width="20" height="20" viewBox="0 0 20 20" fill="none" xmlns="http://www.w3.org/2000/svg">
<path d="M11.25 13.3333C11.25 13.6648 11.1183 13.9828 10.8839 14.2172C10.6495 14.4516 10.3315 14.5833 10 14.5833C9.66848 14.5833 9.35054 14.4516 9.11612 14.2172C8.8817 13.9828 8.75 13.6648 8.75 13.3333C8.75 13.0018 8.8817 12.6839 9.11612 12.4494C9.35054 12.215 9.66848 12.0833 10 12.0833C10.3315 12.0833 10.6495 12.215 10.8839 12.4494C11.1183 12.6839 11.25 13.0018 11.25 13.3333Z" fill="white" fill-opacity="0.4"/>
<path d="M11.9558 0.550003L14.6058 4.26334L16.3533 3.6675L17.9483 8.33334H18.75V18.3333H1.25V8.33334H1.675V8.325L2.215 8.33L11.9558 0.550003ZM7.83083 8.33334H16.1875L15.3233 5.80584L14.055 6.21167L7.83083 8.33334ZM6.5325 7.01417L12.9583 4.825L11.6217 2.95L6.5325 7.01417ZM4.58333 10H2.91667V11.6667C3.35869 11.6667 3.78262 11.4911 4.09518 11.1785C4.40774 10.866 4.58333 10.442 4.58333 10ZM12.9167 13.3333C12.9167 12.9503 12.8412 12.571 12.6946 12.2172C12.5481 11.8633 12.3332 11.5418 12.0624 11.2709C11.7916 11.0001 11.47 10.7853 11.1162 10.6387C10.7623 10.4921 10.383 10.4167 10 10.4167C9.61698 10.4167 9.23771 10.4921 8.88384 10.6387C8.52997 10.7853 8.20844 11.0001 7.93761 11.2709C7.66677 11.5418 7.45193 11.8633 7.30535 12.2172C7.15877 12.571 7.08333 12.9503 7.08333 13.3333C7.08333 14.1069 7.39062 14.8488 7.93761 15.3957C8.48459 15.9427 9.22645 16.25 10 16.25C10.7735 16.25 11.5154 15.9427 12.0624 15.3957C12.6094 14.8488 12.9167 14.1069 12.9167 13.3333ZM17.0833 16.6667V15C16.6413 15 16.2174 15.1756 15.9048 15.4882C15.5923 15.8007 15.4167 16.2246 15.4167 16.6667H17.0833ZM15.4167 10C15.4167 10.442 15.5923 10.866 15.9048 11.1785C16.2174 11.4911 16.6413 11.6667 17.0833 11.6667V10H15.4167ZM2.91667 16.6667H4.58333C4.58333 16.2246 4.40774 15.8007 4.09518 15.4882C3.78262 15.1756 3.35869 15 2.91667 15V16.6667Z" fill="white" fill-opacity="0.4"/>
</svg>
