<svg width="20" height="20" viewBox="0 0 20 20" fill="none" xmlns="http://www.w3.org/2000/svg">
<path d="M8.66665 3.99999H7.33332V0.666665C7.33332 0.489855 7.40356 0.320286 7.52858 0.195262C7.65361 0.0702377 7.82318 0 7.99999 0C8.1768 0 8.34637 0.0702377 8.47139 0.195262C8.59641 0.320286 8.66665 0.489855 8.66665 0.666665V3.99999ZM14 9.63498V5.33332C14 4.9797 13.8595 4.64056 13.6095 4.39051C13.3594 4.14047 13.0203 3.99999 12.6666 3.99999H8.66665V9.05748L10.195 7.52832C10.2569 7.46638 10.3305 7.41724 10.4114 7.38372C10.4923 7.3502 10.5791 7.33295 10.6666 7.33295C10.7542 7.33295 10.841 7.3502 10.9219 7.38372C11.0028 7.41724 11.0764 7.46638 11.1383 7.52832C11.2003 7.59026 11.2494 7.66379 11.2829 7.74472C11.3164 7.82565 11.3337 7.91239 11.3337 7.99998C11.3337 8.08758 11.3164 8.17432 11.2829 8.25525C11.2494 8.33617 11.2003 8.40971 11.1383 8.47165L8.47165 11.1383C8.40974 11.2003 8.33621 11.2495 8.25528 11.283C8.17435 11.3166 8.0876 11.3338 7.99999 11.3338C7.91238 11.3338 7.82563 11.3166 7.74469 11.283C7.66376 11.2495 7.59024 11.2003 7.52832 11.1383L4.86166 8.47165C4.73657 8.34656 4.66629 8.17689 4.66629 7.99998C4.66629 7.82307 4.73657 7.65341 4.86166 7.52832C4.98675 7.40322 5.15642 7.33295 5.33333 7.33295C5.51024 7.33295 5.6799 7.40322 5.80499 7.52832L7.33332 9.05748V3.99999H3.33333C2.97971 3.99999 2.64057 4.14047 2.39052 4.39051C2.14048 4.64056 2 4.9797 2 5.33332V16C2 16.1768 2.07024 16.3463 2.19526 16.4714C2.32029 16.5964 2.48985 16.6666 2.66667 16.6666H8.89165C8.91832 16.7225 8.94749 16.7783 8.97915 16.8333L8.99915 16.865L10.8541 19.6983C10.951 19.8463 11.1026 19.9497 11.2757 19.9859C11.4487 20.0221 11.6291 19.988 11.7771 19.8912C11.925 19.7944 12.0285 19.6428 12.0647 19.4697C12.1008 19.2966 12.0668 19.1163 11.97 18.9683L10.1258 16.1525C9.99509 15.9216 9.96142 15.6483 10.0322 15.3926C10.103 15.1369 10.2725 14.9199 10.5033 14.7891C10.7342 14.6584 11.0075 14.6247 11.2632 14.6955C11.5188 14.7663 11.7359 14.9358 11.8666 15.1666C11.8725 15.1775 11.8791 15.1883 11.8858 15.1983L12.7758 16.5575C12.8545 16.6774 12.9698 16.7688 13.1045 16.8181C13.2393 16.8673 13.3863 16.8718 13.5238 16.8308C13.6613 16.7898 13.7819 16.7055 13.8677 16.5905C13.9535 16.4755 13.9999 16.3359 14 16.1925V11.3333C14.6283 11.915 15.1302 12.6198 15.4743 13.4039C15.8184 14.188 15.9973 15.0345 16 15.8908V19.3333C16 19.5101 16.0702 19.6797 16.1952 19.8047C16.3203 19.9297 16.4898 20 16.6666 20C16.8434 20 17.013 19.9297 17.138 19.8047C17.2631 19.6797 17.3333 19.5101 17.3333 19.3333V15.8875C17.3295 14.6525 17.0238 13.4372 16.4429 12.3474C15.8619 11.2576 15.0232 10.3264 14 9.63498Z" fill="white" fill-opacity="0.4"/>
</svg>
