<svg width="20" height="20" viewBox="0 0 20 20" fill="none" xmlns="http://www.w3.org/2000/svg">
<path d="M4.27091 2.91666C3.58025 2.91666 2.91787 3.19102 2.42949 3.6794C1.94111 4.16778 1.66675 4.83016 1.66675 5.52082V11.9792C1.66675 12.6698 1.94111 13.3322 2.42949 13.8206C2.91787 14.309 3.58025 14.5833 4.27091 14.5833H11.0017L9.56341 13.145C9.30948 12.891 9.16683 12.5466 9.16683 12.1875C9.16683 11.8284 9.30948 11.4839 9.56341 11.23L10.8617 9.93166L10.4167 9.48666L9.63925 10.2642C9.59088 10.3125 9.53345 10.3509 9.47025 10.3771C9.40706 10.4033 9.33932 10.4167 9.27091 10.4167C9.20251 10.4167 9.13477 10.4033 9.07157 10.3771C9.00838 10.3509 8.95095 10.3125 8.90258 10.2642C8.85421 10.2158 8.81584 10.1584 8.78966 10.0952C8.76349 10.032 8.75001 9.96423 8.75001 9.89582C8.75001 9.82742 8.76349 9.75968 8.78966 9.69648C8.81584 9.63328 8.85421 9.57586 8.90258 9.52749L9.68008 8.74999L8.90258 7.97249C8.80489 7.8748 8.75001 7.74231 8.75001 7.60416C8.75001 7.466 8.80489 7.33351 8.90258 7.23582C9.00027 7.13813 9.13276 7.08325 9.27091 7.08325C9.40907 7.08325 9.54156 7.13813 9.63925 7.23582L10.4167 8.01332L11.1942 7.23582C11.2919 7.13813 11.4244 7.08325 11.5626 7.08325C11.7007 7.08325 11.8332 7.13813 11.9309 7.23582C12.0286 7.33351 12.0835 7.466 12.0835 7.60416C12.0835 7.74231 12.0286 7.8748 11.9309 7.97249L11.1534 8.74999L11.6717 9.26832C11.9689 9.14587 12.3 9.13313 12.6057 9.23236C12.9114 9.3316 13.1719 9.53635 13.3405 9.80999C13.3608 9.68842 13.4236 9.57799 13.5177 9.49834C13.6117 9.41869 13.731 9.37498 13.8542 9.37499H15.7292C15.8674 9.37499 15.9999 9.42986 16.0975 9.52754C16.1952 9.62521 16.2501 9.75769 16.2501 9.89582C16.2501 10.034 16.1952 10.1664 16.0975 10.2641C15.9999 10.3618 15.8674 10.4167 15.7292 10.4167H13.8542C13.7288 10.4167 13.6134 10.3721 13.5234 10.2979C13.5526 10.4754 13.5467 10.6579 13.5055 10.8333H15.4167C16.5251 10.8333 17.5409 11.2267 18.3334 11.8808V5.52082C18.3334 4.83016 18.059 4.16778 17.5707 3.6794C17.0823 3.19102 16.4199 2.91666 15.7292 2.91666H4.27091ZM4.31925 7.23582C4.36761 7.18744 4.42504 7.14907 4.48824 7.12289C4.55143 7.0967 4.61917 7.08323 4.68758 7.08323C4.75599 7.08323 4.82373 7.0967 4.88693 7.12289C4.95013 7.14907 5.00755 7.18744 5.05591 7.23582L5.83341 8.01332L6.61091 7.23582C6.7086 7.13813 6.8411 7.08325 6.97925 7.08325C7.1174 7.08325 7.24989 7.13813 7.34758 7.23582C7.44527 7.33351 7.50015 7.466 7.50015 7.60416C7.50015 7.74231 7.44527 7.8748 7.34758 7.97249L6.57008 8.74999L7.34758 9.52749C7.39595 9.57586 7.43432 9.63328 7.4605 9.69648C7.48668 9.75968 7.50015 9.82742 7.50015 9.89582C7.50015 9.96423 7.48668 10.032 7.4605 10.0952C7.43432 10.1584 7.39595 10.2158 7.34758 10.2642C7.29921 10.3125 7.24179 10.3509 7.17859 10.3771C7.11539 10.4033 7.04765 10.4167 6.97925 10.4167C6.91084 10.4167 6.84311 10.4033 6.77991 10.3771C6.71671 10.3509 6.65929 10.3125 6.61091 10.2642L5.83341 9.48666L5.05591 10.2642C4.95823 10.3618 4.82573 10.4167 4.68758 10.4167C4.54943 10.4167 4.41694 10.3618 4.31925 10.2642C4.22156 10.1665 4.16668 10.034 4.16668 9.89582C4.16668 9.75767 4.22156 9.62518 4.31925 9.52749L5.09675 8.74999L4.31925 7.97249C4.27087 7.92412 4.23249 7.8667 4.20631 7.8035C4.18013 7.7403 4.16665 7.67256 4.16665 7.60416C4.16665 7.53575 4.18013 7.46801 4.20631 7.40481C4.23249 7.34161 4.27087 7.28419 4.31925 7.23582ZM12.5559 10.8892C12.6536 10.7915 12.7085 10.659 12.7085 10.5208C12.7085 10.3827 12.6536 10.2502 12.5559 10.1525C12.4582 10.0548 12.3257 9.99992 12.1876 9.99992C12.0494 9.99992 11.9169 10.0548 11.8192 10.1525L10.1526 11.8192C10.1042 11.8675 10.0658 11.9249 10.0396 11.9881C10.0135 12.0513 9.99998 12.1191 9.99998 12.1875C9.99998 12.2559 10.0135 12.3236 10.0396 12.3868C10.0658 12.45 10.1042 12.5075 10.1526 12.5558L11.8192 14.2225C11.9169 14.3202 12.0494 14.3751 12.1876 14.3751C12.3257 14.3751 12.4582 14.3202 12.5559 14.2225C12.6536 14.1248 12.7085 13.9923 12.7085 13.8542C12.7085 13.716 12.6536 13.5835 12.5559 13.4858L11.7784 12.7083H15.4167C15.9336 12.7084 16.4397 12.8564 16.8752 13.1348C17.3107 13.4132 17.6574 13.8104 17.8745 14.2796C18.0915 14.7487 18.1697 15.2701 18.0999 15.7823C18.0301 16.2944 17.8153 16.7759 17.4807 17.1699C17.146 17.5639 16.7057 17.8539 16.2116 18.0056C15.7175 18.1574 15.1902 18.1646 14.6922 18.0264C14.1941 17.8882 13.746 17.6103 13.4008 17.2256C13.0555 16.8409 12.8276 16.3655 12.7438 15.8554C12.7328 15.7879 12.7086 15.7232 12.6726 15.665C12.6366 15.6068 12.5895 15.5563 12.534 15.5164C12.4785 15.4764 12.4156 15.4478 12.3491 15.4321C12.2825 15.4164 12.2134 15.414 12.1459 15.425C12.0784 15.436 12.0137 15.4602 11.9555 15.4962C11.8974 15.5322 11.8468 15.5793 11.8069 15.6348C11.7669 15.6903 11.7383 15.7532 11.7226 15.8198C11.7069 15.8864 11.7045 15.9554 11.7155 16.0229C12.0055 17.8058 13.5517 19.1667 15.4167 19.1667C16.4113 19.1667 17.3651 18.7716 18.0684 18.0683C18.7717 17.365 19.1667 16.4112 19.1667 15.4167C19.1667 14.4221 18.7717 13.4683 18.0684 12.765C17.3651 12.0617 16.4113 11.6667 15.4167 11.6667H11.7784L12.5559 10.8892Z" fill="white" fill-opacity="0.4"/>
</svg>
