<svg width="20" height="20" viewBox="0 0 20 20" fill="none" xmlns="http://www.w3.org/2000/svg">
<path d="M9.12508 11.375L7.97925 10.2292C7.81258 10.0625 7.61119 9.97918 7.37508 9.97918C7.13897 9.97918 6.93758 10.0625 6.77091 10.2292C6.60425 10.3958 6.52091 10.5972 6.52091 10.8333C6.52091 11.0695 6.60425 11.2708 6.77091 11.4375L8.54175 13.2083C8.70841 13.375 8.90286 13.4583 9.12508 13.4583C9.3473 13.4583 9.54175 13.375 9.70841 13.2083L13.2292 9.68751C13.3959 9.52084 13.4792 9.31945 13.4792 9.08334C13.4792 8.84723 13.3959 8.64584 13.2292 8.47918C13.0626 8.31251 12.8612 8.22918 12.6251 8.22918C12.389 8.22918 12.1876 8.31251 12.0209 8.47918L9.12508 11.375ZM3.33341 6.66668H16.6667V5.00001H3.33341V6.66668ZM3.33341 16.6667C2.87508 16.6667 2.48286 16.5036 2.15675 16.1775C1.83064 15.8514 1.6673 15.4589 1.66675 15V5.00001C1.66675 4.54168 1.83008 4.14945 2.15675 3.82334C2.48341 3.49723 2.87564 3.3339 3.33341 3.33334H16.6667C17.1251 3.33334 17.5176 3.49668 17.8442 3.82334C18.1709 4.15001 18.334 4.54223 18.3334 5.00001V15C18.3334 15.4583 18.1704 15.8508 17.8442 16.1775C17.5181 16.5042 17.1256 16.6672 16.6667 16.6667H3.33341Z" fill="white" fill-opacity="0.4"/>
</svg>
