<svg width="20" height="20" viewBox="0 0 20 20" fill="none" xmlns="http://www.w3.org/2000/svg">
<path d="M13.125 10C12.3218 10 11.5453 9.64141 10.9375 8.99063C10.3464 8.35586 9.9855 7.50938 9.92183 6.60781C9.85386 5.64609 10.1472 4.76172 10.7476 4.11719C11.348 3.47266 12.1875 3.125 13.125 3.125C14.0558 3.125 14.8976 3.47891 15.496 4.12187C16.1003 4.77109 16.3945 5.65391 16.3265 6.60742C16.2613 7.51016 15.9007 8.35625 15.3109 8.99023C14.7046 9.64141 13.9285 10 13.125 10ZM18.2746 16.875H7.97574C7.81015 16.8759 7.64658 16.8388 7.49759 16.7665C7.34861 16.6943 7.21818 16.5888 7.11636 16.4582C7.00835 16.3166 6.93377 16.1525 6.89819 15.978C6.8626 15.8036 6.86695 15.6233 6.91089 15.4508C7.2398 14.1301 8.05464 13.0348 9.26714 12.2836C10.3433 11.6172 11.7132 11.25 13.125 11.25C14.5644 11.25 15.8984 11.6016 16.9808 12.2676C18.196 13.0148 19.0121 14.1164 19.3394 15.4531C19.3828 15.6258 19.3867 15.806 19.3507 15.9804C19.3147 16.1548 19.2398 16.3188 19.1316 16.4602C19.0299 16.5901 18.8998 16.6951 18.7512 16.767C18.6026 16.8389 18.4396 16.8758 18.2746 16.875ZM5.74214 10.1562C4.36753 10.1562 3.15894 8.87813 3.04683 7.30742C2.99136 6.50273 3.24214 5.75859 3.74996 5.21289C4.2523 4.67266 4.96089 4.375 5.74214 4.375C6.52339 4.375 7.22652 4.67422 7.7316 5.21758C8.24331 5.76758 8.49331 6.51016 8.43472 7.3082C8.32261 8.87852 7.11441 10.1562 5.74214 10.1562ZM8.30699 11.3848C7.61988 11.0488 6.72808 10.8809 5.74253 10.8809C4.59175 10.8809 3.47417 11.1809 2.59527 11.7254C1.59878 12.3438 0.928471 13.2441 0.657768 14.3313C0.618153 14.4876 0.614406 14.6509 0.646808 14.8089C0.679209 14.9669 0.746921 15.1156 0.844877 15.2437C0.937826 15.3631 1.0569 15.4595 1.19295 15.5256C1.329 15.5917 1.47839 15.6257 1.62964 15.625H5.96558C6.03876 15.625 6.10962 15.5993 6.1658 15.5524C6.22198 15.5055 6.25992 15.4404 6.273 15.3684C6.2773 15.3438 6.28277 15.3191 6.28902 15.2949C6.62027 13.9645 7.39644 12.8402 8.54331 12.0207C8.5855 11.9903 8.61943 11.9498 8.64202 11.903C8.66462 11.8562 8.67518 11.8045 8.67274 11.7525C8.67029 11.7006 8.65493 11.6501 8.62803 11.6056C8.60113 11.5611 8.56356 11.524 8.51871 11.4977C8.45738 11.4617 8.38706 11.4238 8.30699 11.3848Z" fill="white" fill-opacity="0.4"/>
</svg>
