<svg width="34" height="34" viewBox="0 0 34 34" fill="none" xmlns="http://www.w3.org/2000/svg">
<path d="M27 3.25H7C4.92893 3.25 3.25 4.92893 3.25 7V27C3.25 29.0711 4.92893 30.75 7 30.75H27C29.0711 30.75 30.75 29.0711 30.75 27V7C30.75 4.92893 29.0711 3.25 27 3.25Z" stroke="white" stroke-width="1.5" stroke-linejoin="round"/>
<path d="M24.5 8.25H9.5C8.80964 8.25 8.25 8.80964 8.25 9.5V24.5C8.25 25.1904 8.80964 25.75 9.5 25.75H24.5C25.1904 25.75 25.75 25.1904 25.75 24.5V9.5C25.75 8.80964 25.1904 8.25 24.5 8.25Z" stroke="white" stroke-width="1.5" stroke-linejoin="round"/>
<path d="M17 3.25V0.75M23.25 3.25V0.75M10.75 3.25V0.75M17 33.25V30.75M23.25 33.25V30.75M10.75 33.25V30.75M30.75 17H33.25M30.75 23.25H33.25M30.75 10.75H33.25M0.75 17H3.25M0.75 23.25H3.25M0.75 10.75H3.25" stroke="white" stroke-width="1.5" stroke-linecap="round" stroke-linejoin="round"/>
</svg>
